# xmcd
#
# Track frame offsets:
#	150
#	24340
#	45485
#	67396
#	91999
#	115909
#	140036
#	163752
#	188036
#	211969
#	234041
#	254381
#	278988
#	300588
#	318998
#
# Disc length: 4546 seconds
#
# Revision: 0
# Processed by: cddbd v1.4PL0 Copyright (c) Steve Scherf et al.
# Submitted via: dBpowerAMP V4.0
#
DISCID=d111c00f
DTITLE=Jorge Celedon - Canto Vallenato
DYEAR=2002
DGENRE=Vallenato
TTITLE0=Ay Hombe
TTITLE1=No Merezco Tanto Silencio
TTITLE2=Cuanto Entregue Por Ti
TTITLE3=Mi Unica Verdad
TTITLE4=Por Estar Adorandote
TTITLE5=No Podran Separarnos
TTITLE6=No Te Olvidaré
TTITLE7=Tengo Corazon
TTITLE8=Por Tu Primer Beso
TTITLE9=No Puedo Olvidarte
TTITLE10=La Noche De Mis Recuerdos
TTITLE11=Estoy Solo
TTITLE12=Llevame En Tus Sueños
TTITLE13=Romantico Como Yo
TTITLE14=Que Lloren Las Estrellas
EXTD=Vallenato Ventiao
EXTT0=
EXTT1=
EXTT2=
EXTT3=
EXTT4=
EXTT5=
EXTT6=
EXTT7=
EXTT8=
EXTT9=
EXTT10=
EXTT11=
EXTT12=
EXTT13=
EXTT14=
PLAYORDER=
